# xmcd
#
# Track frame offsets: 
#        150
#        29376
#        50431
#        72909
#        98994
#        124614
#        148932
#        167017
#        195470
#        226259
#        245938
#        265394
#        288321
#
# Disc length: 3945 seconds
#
# Revision: 0
# Processed by: cddbd v1.5.2PL0 Copyright (c) Steve Scherf et al.
# Submitted via: ExactAudioCopy v1.0b4
#
DISCID=c20f670d
DTITLE=Dave Weld and The Imperial Flames - Slip Into A Dream
DYEAR=2015
DGENRE=Blues
TTITLE0=Slip Into A Dream
TTITLE1=Sweet Rockin' Soul
TTITLE2=Looking For A Man
TTITLE3=Take Me Back
TTITLE4=May Be Right, May Be Wrong
TTITLE5=Sweet Love (Dulce Amor)
TTITLE6=Louise
TTITLE7=Tremble
TTITLE8=Walk On Down
TTITLE9=Dorothy Mae
TTITLE10=Too Bad, So Sad
TTITLE11=20% Alcohol
TTITLE12=Slip Into A Dream (Reprise)
EXTD=
EXTT0=
EXTT1=
EXTT2=
EXTT3=
EXTT4=
EXTT5=
EXTT6=
EXTT7=
EXTT8=
EXTT9=
EXTT10=
EXTT11=
EXTT12=
PLAYORDER=
